<svg xmlns="http://www.w3.org/2000/svg" viewBox="0 0 64 64" role="img" aria-label="LyraShield AI">
  <defs>
    <linearGradient id="steel" x1="10" y1="8" x2="52" y2="56" gradientUnits="userSpaceOnUse">
      <stop stop-color="#F3FBFF"/>
      <stop offset=".22" stop-color="#64788A"/>
      <stop offset=".58" stop-color="#0A1422"/>
      <stop offset="1" stop-color="#B9D6E4"/>
    </linearGradient>
    <linearGradient id="cyan" x1="18" y1="12" x2="44" y2="52" gradientUnits="userSpaceOnUse">
      <stop stop-color="#B8FBFF"/>
      <stop offset=".35" stop-color="#27D5E2"/>
      <stop offset="1" stop-color="#087F78"/>
    </linearGradient>
    <linearGradient id="violet" x1="35" y1="38" x2="48" y2="54" gradientUnits="userSpaceOnUse">
      <stop stop-color="#B9AEFF"/>
      <stop offset="1" stop-color="#6D4CFF"/>
    </linearGradient>
    <filter id="glow" x="-30%" y="-30%" width="160%" height="160%">
      <feGaussianBlur stdDeviation="1.3" result="blur"/>
      <feMerge><feMergeNode in="blur"/><feMergeNode in="SourceGraphic"/></feMerge>
    </filter>
  </defs>
  <path d="M32 2 53 14l-3.5 34L32 62 14.5 48 11 14 32 2Z" fill="#07111F" stroke="url(#steel)" stroke-width="1.5"/>
  <path d="M32 2 11 14l15 4 6-16Z" fill="url(#steel)"/>
  <path d="m32 2 21 12-15.5 4L32 2Z" fill="#233747"/>
  <path d="m11 14 15 4-4.5 17-7 13L11 14Z" fill="#142638"/>
  <path d="m53 14-15.5 4 5.5 15 6.5 15L53 14Z" fill="#06101D"/>
  <path d="m14.5 48 7-13L32 62 14.5 48Z" fill="#0D6971"/>
  <path d="m49.5 48-6.5-15L32 62l17.5-14Z" fill="url(#steel)"/>
  <path d="m26 18 6-16 5.5 16L31 34 26 18Z" fill="url(#cyan)" opacity=".95"/>
  <path d="m43 33 6.5 15L32 62l4-18 7-11Z" fill="url(#cyan)" opacity=".75"/>
  <path d="m36 44 7-11 3.8 8.7-10.8 2.3Z" fill="url(#violet)"/>
  <path d="M25 15v29h13" fill="none" stroke="url(#cyan)" stroke-width="4.5" stroke-linejoin="bevel" filter="url(#glow)"/>
  <path d="M42 18H31l-4 10 13 6-4 11H23" fill="none" stroke="url(#steel)" stroke-width="3.5" stroke-linejoin="bevel"/>
  <path d="m26 18 6-16 5.5 16M14.5 48 32 62l17.5-14" fill="none" stroke="#74EDF4" stroke-width=".8" opacity=".8"/>
</svg>
