<svg xmlns="http://www.w3.org/2000/svg" viewBox="0 0 64 64" role="img" aria-labelledby="title">
  <title id="title">LyraShield AI</title>
  <defs>
    <linearGradient id="edge" x1="12" y1="8" x2="52" y2="57" gradientUnits="userSpaceOnUse">
      <stop stop-color="#F3FBFF"/>
      <stop offset=".25" stop-color="#71899A"/>
      <stop offset=".58" stop-color="#24D3E0"/>
      <stop offset="1" stop-color="#8A6CFF"/>
    </linearGradient>
    <linearGradient id="mark" x1="21" y1="16" x2="43" y2="47" gradientUnits="userSpaceOnUse">
      <stop stop-color="#B9FBFF"/>
      <stop offset=".58" stop-color="#25D3E0"/>
      <stop offset="1" stop-color="#597CEB"/>
    </linearGradient>
    <clipPath id="shield">
      <path d="M32 3 53 14v16c0 14-8.7 25-21 31-12.3-6-21-17-21-31V14L32 3Z"/>
    </clipPath>
  </defs>
  <!-- ponytail: old-logo character returns as quiet facets, not another competing monogram. -->
  <path d="M32 3 53 14v16c0 14-8.7 25-21 31-12.3-6-21-17-21-31V14L32 3Z" fill="#07111F"/>
  <g clip-path="url(#shield)">
    <path d="M32 3 11 14v18l17 9 4-38Z" fill="#142B3C"/>
    <path d="m32 3 21 11v18l-17 9-4-38Z" fill="#0A1725"/>
    <path d="m11 32 17 9 4 20C20 55 12.5 45.5 11 32Z" fill="#0B6670" opacity=".62"/>
    <path d="m53 32-17 9-4 20c12-6 19.5-15.5 21-29Z" fill="#101A34" opacity=".82"/>
  </g>
  <path d="M32 3 53 14v16c0 14-8.7 25-21 31-12.3-6-21-17-21-31V14L32 3Z" fill="none" stroke="url(#edge)" stroke-width="2.5" stroke-linejoin="round"/>
  <path d="M21 16h8v22h17l-4 9H21V16Z" fill="url(#mark)"/>
  <path d="m38 38h8l-4 9h-8l4-9Z" fill="#8A6CFF"/>
</svg>
